<?xml version="1.0" encoding="UTF-8"?>
<svg xmlns="http://www.w3.org/2000/svg" xmlns:xlink="http://www.w3.org/1999/xlink" viewBox="0 0 1920 1080">
  <defs>
    <style>
      .cls-1 {
        fill: url(#linear-gradient);
      }

      .cls-2 {
        opacity: .04;
      }

      .cls-3 {
        opacity: .08;
      }

      .cls-4 {
        opacity: .06;
      }

      .cls-5 {
        opacity: .1;
      }

      .cls-6 {
        opacity: .12;
      }

      .cls-7 {
        fill: #f2f2f2;
      }

      .cls-8 {
        fill: url(#linear-gradient-2);
      }

      .cls-9 {
        opacity: .02;
      }
    </style>
    <linearGradient id="linear-gradient" x1="228.69" y1="-423.98" x2="1392.66" y2="1110.31" gradientUnits="userSpaceOnUse">
      <stop offset=".18" stop-color="#072141"/>
      <stop offset=".39" stop-color="#0e1c32"/>
      <stop offset=".68" stop-color="#151826"/>
      <stop offset=".96" stop-color="#181722"/>
    </linearGradient>
    <linearGradient id="linear-gradient-2" x1="0" y1="540" x2="1920" y2="540" gradientUnits="userSpaceOnUse">
      <stop offset=".18" stop-color="#181743"/>
      <stop offset=".42" stop-color="#181732"/>
      <stop offset=".71" stop-color="#181726"/>
      <stop offset=".98" stop-color="#181722"/>
    </linearGradient>
  </defs>
  <g id="gradient">
    <g>
      <rect class="cls-1" y="0" width="1920" height="1080"/>
      <path class="cls-8" d="m1919,1v1078H1V1h1918m1-1H0v1080h1920V0h0Z"/>
    </g>
  </g>
  <g id="moon">
    <g class="cls-9">
      <path class="cls-7" d="m1412.42,1034.88c-64.46,0-127.16-12.69-186.35-37.73-57.02-24.12-108.17-58.58-152.01-102.43-43.84-43.84-78.3-94.98-102.42-152-25.04-59.2-37.73-121.9-37.73-186.36s12.69-127.16,37.73-186.36c24.12-57.02,58.58-108.16,102.42-152.01,43.85-43.85,94.99-78.31,152.01-102.42,59.2-25.04,121.9-37.73,186.36-37.73s127.16,12.69,186.36,37.73c57.02,24.12,108.16,58.58,152.01,102.43,43.85,43.85,78.31,94.99,102.42,152.01,25.04,59.2,37.73,121.9,37.73,186.36s-12.69,127.16-37.73,186.36c-24.12,57.02-58.58,108.17-102.43,152.01-43.85,43.85-94.99,78.31-152.01,102.42-59.2,25.04-121.9,37.73-186.36,37.73Z"/>
    </g>
    <g class="cls-2">
      <path class="cls-7" d="m1412.42,983.13c-57.5,0-113.41-11.32-166.2-33.64-50.86-21.51-96.47-52.25-135.58-91.36-39.11-39.11-69.85-84.72-91.35-135.57-22.33-52.79-33.65-108.71-33.65-166.2s11.32-113.42,33.64-166.2c21.51-50.85,52.25-96.47,91.36-135.58,39.11-39.11,84.73-69.85,135.58-91.36,52.78-22.33,108.7-33.65,166.2-33.65s113.42,11.32,166.2,33.64c50.85,21.51,96.47,52.25,135.58,91.36,39.11,39.11,69.85,84.72,91.36,135.58,22.33,52.78,33.64,108.7,33.64,166.2s-11.32,113.42-33.64,166.2c-21.51,50.85-52.25,96.47-91.36,135.58-39.11,39.11-84.73,69.85-135.58,91.36-52.79,22.33-108.7,33.65-166.2,33.65Z"/>
    </g>
    <g class="cls-4">
      <path class="cls-7" d="m1412.42,931.39c-50.54,0-99.67-9.94-146.04-29.56-44.69-18.9-84.77-45.92-119.15-80.29-34.37-34.37-61.39-74.46-80.29-119.14-19.61-46.37-29.56-95.51-29.56-146.05s9.94-99.67,29.56-146.04c18.9-44.68,45.91-84.77,80.29-119.15,34.38-34.38,74.46-61.39,119.14-80.29,46.37-19.61,95.51-29.56,146.05-29.56s99.67,9.94,146.04,29.56c44.68,18.9,84.77,45.91,119.15,80.29,34.38,34.38,61.39,74.46,80.29,119.14,19.61,46.37,29.56,95.51,29.56,146.04s-9.94,99.67-29.56,146.04c-18.9,44.69-45.91,84.77-80.29,119.15-34.38,34.38-74.46,61.39-119.14,80.29-46.37,19.61-95.51,29.56-146.05,29.56Z"/>
    </g>
    <g class="cls-3">
      <path class="cls-7" d="m1412.42,879.64c-43.57,0-85.93-8.57-125.88-25.47-38.52-16.29-73.08-39.58-102.72-69.22-29.64-29.64-52.93-64.2-69.22-102.71-16.9-39.96-25.47-82.31-25.47-125.89s8.57-85.93,25.47-125.89c16.29-38.52,39.58-73.07,69.22-102.72,29.64-29.64,64.2-52.93,102.71-69.22,39.96-16.9,82.31-25.47,125.89-25.47s85.93,8.57,125.89,25.47c38.52,16.29,73.08,39.58,102.72,69.22,29.64,29.64,52.93,64.2,69.22,102.71,16.9,39.96,25.47,82.31,25.47,125.89s-8.57,85.93-25.47,125.88c-16.29,38.52-39.58,73.08-69.22,102.71-29.64,29.64-64.2,52.93-102.71,69.22-39.96,16.9-82.31,25.47-125.89,25.47Z"/>
    </g>
    <g class="cls-5">
      <path class="cls-7" d="m1412.42,827.9c-36.61,0-72.18-7.19-105.73-21.38-32.35-13.68-61.38-33.25-86.28-58.15-24.9-24.9-44.47-53.93-58.15-86.28-14.19-33.55-21.38-69.12-21.38-105.73s7.19-72.18,21.38-105.73c13.68-32.35,33.25-61.38,58.15-86.28,24.9-24.9,53.93-44.47,86.28-58.15,33.54-14.19,69.12-21.38,105.73-21.38s72.19,7.19,105.73,21.38c32.35,13.68,61.38,33.25,86.28,58.15,24.9,24.9,44.47,53.93,58.15,86.28,14.19,33.55,21.38,69.12,21.38,105.73s-7.19,72.18-21.38,105.73c-13.68,32.35-33.25,61.38-58.15,86.28-24.91,24.9-53.93,44.47-86.28,58.15-33.55,14.19-69.12,21.38-105.73,21.38Z"/>
    </g>
    <g class="cls-6">
      <path class="cls-7" d="m1412.42,776.15c-29.65,0-58.44-5.82-85.57-17.29-26.18-11.07-49.68-26.91-69.85-47.08-20.17-20.17-36.01-43.67-47.08-69.85-11.48-27.13-17.29-55.92-17.29-85.57s5.82-58.44,17.29-85.57c11.07-26.18,26.91-49.68,47.08-69.85,20.17-20.17,43.67-36.01,69.85-47.08,27.13-11.48,55.92-17.29,85.57-17.29s58.44,5.82,85.57,17.29c26.18,11.07,49.68,26.91,69.85,47.08,20.17,20.17,36.01,43.67,47.08,69.85,11.48,27.13,17.29,55.92,17.29,85.57s-5.82,58.44-17.29,85.57c-11.07,26.18-26.91,49.68-47.08,69.85-20.17,20.17-43.67,36.01-69.85,47.08-27.13,11.48-55.92,17.29-85.57,17.29Z"/>
    </g>
    <circle class="cls-7" cx="1412.42" cy="556.35" r="168.05"/>
  </g>
</svg>